<?xml version="1.0" standalone="no"?>
<!DOCTYPE svg PUBLIC "-//W3C//DTD SVG 20010904//EN"
 "http://www.w3.org/TR/2001/REC-SVG-20010904/DTD/svg10.dtd">
<svg version="1.0" xmlns="http://www.w3.org/2000/svg"
 width="400.000000pt" height="400.000000pt" viewBox="0 0 400.000000 400.000000"
 preserveAspectRatio="xMidYMid meet">
<metadata>
Created by potrace 1.14, written by Peter Selinger 2001-2017
</metadata>
<g transform="translate(0.000000,400.000000) scale(0.100000,-0.100000)"
fill="#000000" stroke="none">
<path d="M1854 3751 c23 -43 20 -47 -10 -12 -20 24 -33 30 -59 29 l-34 -1 26
-44 c18 -30 23 -51 19 -69 -6 -21 -9 -24 -21 -14 -13 11 -13 7 0 -30 22 -62
17 -83 -7 -31 -11 25 -35 60 -52 79 -28 29 -35 32 -59 23 -15 -6 -27 -15 -27
-21 0 -6 -4 -8 -10 -5 -6 4 -10 -8 -10 -29 0 -45 -15 -47 -24 -3 -5 23 -9 28
-15 18 -11 -17 -31 -5 -31 19 0 13 -5 17 -20 13 -11 -3 -20 -10 -20 -15 0 -5
-8 -28 -19 -51 -10 -23 -21 -49 -24 -57 -3 -8 -6 -3 -6 13 -1 35 -27 36 -35 1
-6 -20 -10 -24 -19 -15 -8 8 -8 19 0 41 12 32 8 40 -19 40 -15 0 -17 6 -13 28
5 25 4 25 -10 -5 -17 -38 -35 -43 -35 -10 -1 17 -5 14 -21 -18 -11 -22 -18
-50 -16 -62 2 -13 0 -23 -4 -23 -5 0 -9 11 -9 25 0 30 -16 33 -23 5 -8 -30
-23 -24 -35 13 -5 17 -10 24 -11 15 -1 -21 -17 -24 -24 -5 -3 6 -6 -6 -6 -28
-2 -55 -12 -70 -40 -56 -17 10 -20 9 -15 -4 5 -13 2 -13 -30 0 -38 16 -57 19
-41 7 6 -4 17 -16 25 -26 15 -19 14 -19 -17 -2 -44 22 -41 8 7 -34 22 -19 40
-38 40 -42 0 -5 -15 -8 -32 -9 -31 0 -84 -16 -63 -19 6 0 1 -6 -11 -13 -11 -7
-47 -42 -80 -78 -61 -68 -81 -113 -89 -198 -4 -45 -8 -63 -45 -231 -11 -53
-20 -113 -20 -135 1 -22 -2 -66 -6 -97 -4 -36 -2 -63 4 -71 7 -8 6 -30 -3 -72
-8 -33 -15 -101 -17 -150 -3 -74 -8 -97 -26 -122 -25 -35 -62 -178 -62 -241 0
-48 78 -298 117 -375 13 -27 54 -77 90 -111 60 -57 67 -69 73 -113 3 -26 3
-92 -1 -146 -8 -99 -13 -113 -84 -233 l-19 -31 34 -44 c280 -361 671 -680 972
-793 l68 -26 5 28 c14 68 69 268 76 278 7 8 29 6 82 -9 49 -14 103 -21 172
-21 151 -1 161 5 269 180 17 29 54 86 82 127 28 41 69 119 92 173 73 177 93
227 140 344 l45 115 2 160 c2 184 5 196 89 335 55 92 56 97 50 147 -8 66 13
158 33 141 10 -8 13 -4 13 19 0 17 9 57 19 90 11 33 22 86 26 117 5 35 13 60
22 63 9 4 12 15 9 32 -15 78 -17 116 -6 101 9 -12 10 -6 5 23 -5 28 -3 37 5
32 9 -6 9 -2 1 13 -17 32 -14 34 43 27 47 -6 59 -4 87 15 47 34 101 160 68
160 -7 0 -9 10 -5 26 5 17 3 23 -4 19 -13 -8 -13 -4 5 38 22 53 18 66 -10 32
-13 -16 -24 -25 -25 -19 0 6 8 18 17 25 55 46 89 148 63 189 -7 11 -10 7 -10
-18 0 -18 -6 -47 -14 -65 -14 -33 -66 -88 -66 -70 0 6 7 16 16 24 8 7 24 29
34 50 22 42 14 90 -20 131 -18 20 -19 21 -14 3 3 -11 -18 6 -48 38 -29 32 -60
59 -69 61 -10 1 -24 8 -33 15 -14 12 -16 11 -10 -5 5 -13 -5 -7 -28 15 -42 42
-72 50 -63 18 4 -12 -14 12 -39 54 -57 96 -89 126 -48 44 17 -33 33 -73 37
-90 l6 -30 -17 24 c-10 14 -26 34 -36 45 -31 35 -42 49 -72 94 -33 48 -43 55
-22 15 20 -41 46 -103 41 -103 -2 0 -16 23 -31 50 -17 32 -33 49 -41 46 -7 -3
-23 8 -35 24 -12 17 -33 37 -46 46 -23 15 -23 15 -11 -7 l12 -22 -28 21 c-15
12 -34 22 -42 22 -7 0 -26 8 -41 19 -15 10 -38 25 -52 34 -14 9 -36 25 -50 34
-24 17 -24 17 -11 0 20 -25 3 -21 -31 9 -32 26 -106 66 -146 79 -22 6 -23 5
-11 -17 12 -23 12 -23 -22 3 -30 23 -69 38 -149 56 -23 6 -24 5 -10 -12 14
-17 14 -18 -7 -6 -13 6 -23 15 -23 19 0 4 -9 13 -21 20 -19 12 -19 11 -9 -8
15 -27 3 -45 -18 -28 -12 10 -12 7 2 -14 23 -35 10 -36 -26 -1 -15 14 -39 27
-52 28 l-24 1 21 -31 c19 -27 19 -29 1 -14 -43 36 -43 28 0 -31 26 -35 44 -65
42 -68 -6 -5 -36 23 -36 33 0 10 -119 124 -142 136 -18 10 -19 9 -4 -20z
m1337 -523 c11 -21 11 -22 -4 -9 -10 7 -17 17 -17 22 0 15 9 10 21 -13z
m-1421 -279 c0 -7 18 -10 48 -8 79 4 114 0 106 -12 -5 -9 6 -10 41 -5 29 5 45
4 41 -2 -3 -6 19 -13 52 -16 83 -10 202 -39 196 -47 -2 -5 11 -10 31 -13 19
-4 52 -9 72 -12 l38 -6 -25 -13 c-24 -13 -22 -14 38 -20 34 -4 62 -11 62 -15
0 -4 27 -10 61 -13 33 -4 88 -18 123 -32 34 -14 71 -25 82 -25 10 0 32 -7 48
-15 15 -8 34 -15 41 -15 21 0 94 -58 108 -87 8 -16 18 -52 22 -82 5 -36 10
-49 16 -40 12 19 13 2 14 -266 l0 -230 -110 0 c-60 0 -113 3 -116 8 -3 4 -23
-8 -45 -28 -32 -29 -36 -36 -24 -45 8 -5 31 -10 50 -11 19 0 49 -2 65 -4 17
-2 63 -4 103 -5 85 -1 84 5 19 -103 -77 -127 -81 -143 -78 -309 2 -147 2 -147
-34 -243 -20 -53 -47 -122 -61 -153 -14 -31 -40 -95 -58 -142 -48 -123 -102
-227 -150 -290 -23 -30 -62 -89 -85 -130 -26 -47 -56 -85 -79 -100 -33 -23
-45 -25 -151 -25 -93 0 -130 5 -185 23 -37 12 -69 22 -71 22 -5 0 -42 -126
-66 -225 -12 -50 -23 -91 -24 -93 -4 -5 -145 59 -216 99 -274 155 -540 387
-762 665 l-61 77 28 46 c60 101 68 128 73 250 7 148 -1 173 -73 235 -75 65
-95 100 -154 272 -49 142 -51 153 -47 229 16 277 137 332 327 150 36 -34 82
-70 103 -80 20 -9 37 -22 37 -27 0 -13 53 -88 63 -88 20 0 47 46 72 121 15 46
40 104 55 129 15 25 33 63 40 85 7 22 30 77 52 122 21 45 38 90 38 100 0 11 7
28 15 39 8 10 15 28 15 39 0 11 9 38 21 59 11 22 22 51 24 65 5 34 32 98 45
106 6 4 8 11 5 16 -16 24 38 85 83 94 9 2 33 10 52 19 42 18 50 19 50 5z"/>
<path d="M1828 2200 c-25 -16 -49 -33 -52 -38 -3 -5 17 -13 45 -16 86 -12 295
-74 429 -128 125 -50 128 -50 147 -21 17 25 16 26 -33 68 -30 26 -52 39 -56
32 -4 -7 -19 -1 -41 16 -20 15 -44 28 -55 30 -11 2 -27 9 -36 16 -11 9 -16 10
-16 2 0 -7 -13 -6 -37 5 -165 73 -223 79 -295 34z"/>
<path d="M746 2158 c-8 -13 -17 -39 -20 -58 l-6 -35 15 39 c19 51 33 66 58 66
33 0 105 -48 132 -88 14 -20 25 -32 25 -26 0 17 -70 93 -101 109 -42 22 -86
19 -103 -7z"/>
<path d="M752 1900 c0 -14 2 -19 5 -12 2 6 2 18 0 25 -3 6 -5 1 -5 -13z"/>
<path d="M742 1815 c-2 -44 3 -69 18 -92 11 -18 22 -33 25 -33 3 0 -3 12 -12
27 -10 15 -21 56 -24 93 l-6 65 -1 -60z"/>
<path d="M937 1803 c-4 -3 -7 -13 -7 -22 1 -13 3 -13 11 2 11 19 8 33 -4 20z"/>
<path d="M981 1772 c-1 -13 10 -40 24 -60 28 -40 31 -62 13 -80 -8 -8 -8 -12
-1 -12 12 0 23 23 23 47 0 8 -9 28 -21 44 -12 17 -25 42 -29 57 -8 25 -8 25
-9 4z"/>
<path d="M820 1767 c0 -18 39 -63 72 -80 l33 -19 -32 26 c-17 15 -41 39 -52
54 -11 15 -21 23 -21 19z"/>
<path d="M2521 1679 c0 -13 4 -33 9 -44 7 -14 8 -8 3 20 -7 46 -13 59 -12 24z"/>
<path d="M2541 1600 c0 -14 28 -72 29 -59 0 4 -7 22 -15 40 -8 19 -14 27 -14
19z"/>
<path d="M2610 1457 c16 -28 34 -71 40 -94 12 -37 11 -45 -8 -77 -12 -20 -17
-36 -11 -36 5 0 17 16 25 37 19 43 7 103 -32 170 -36 61 -47 62 -14 0z"/>
<path d="M1130 1055 c0 -11 49 -95 56 -95 3 0 -7 21 -22 48 -33 56 -34 58 -34
47z"/>
<path d="M1190 946 c0 -2 7 -9 15 -16 13 -11 14 -10 9 4 -5 14 -24 23 -24 12z"/>
<path d="M1260 875 c19 -19 36 -35 39 -35 3 0 -10 16 -29 35 -19 19 -36 35
-39 35 -3 0 10 -16 29 -35z"/>
<path d="M1320 816 c0 -2 7 -9 15 -16 9 -7 15 -8 15 -2 0 5 -7 12 -15 16 -8 3
-15 4 -15 2z"/>
<path d="M1394 761 c7 -11 46 -35 46 -28 0 3 -12 12 -26 22 -15 9 -23 12 -20
6z"/>
<path d="M1470 706 c0 -2 7 -7 16 -10 8 -3 12 -2 9 4 -6 10 -25 14 -25 6z"/>
<path d="M1510 686 c0 -3 9 -10 20 -16 11 -6 20 -8 20 -6 0 3 -9 10 -20 16
-11 6 -20 8 -20 6z"/>
</g>
</svg>
